# MagicaVoxel @ Ephtracy

# group
g LucicatClaseRA-4

# material
mtllib LucicatClaseRA-4.mtl
usemtl palette

# normals
vn -1 0 0
vn 1 0 0
vn 0 0 1
vn 0 0 -1
vn 0 -1 0
vn 0 1 0

# texcoords
vt 0.376953 0.5
vt 0.408203 0.5
vt 0.412109 0.5

# verts
v -20 0 -16
v -20 0 -19
v -20 8 -16
v -20 8 -19
v -19 8 -17
v -19 8 -18
v -19 9 -17
v -19 9 -18
v -18 2 -15
v -18 2 -16
v -18 7 -15
v -18 7 -16
v -18 8 -17
v -18 8 -18
v -18 9 -17
v -18 9 -18
v -17 0 -16
v -17 0 -19
v -17 2 -15
v -17 2 -16
v -17 7 -15
v -17 7 -16
v -17 8 -16
v -17 8 -19
v -18 2 -15
v -18 7 -15
v -17 2 -15
v -17 7 -15
v -20 0 -16
v -20 8 -16
v -18 2 -16
v -18 7 -16
v -17 0 -16
v -17 2 -16
v -17 7 -16
v -17 8 -16
v -19 8 -17
v -19 9 -17
v -18 8 -17
v -18 9 -17
v -19 8 -18
v -19 9 -18
v -18 8 -18
v -18 9 -18
v -20 0 -19
v -20 8 -19
v -17 0 -19
v -17 8 -19
v -20 0 -16
v -17 0 -16
v -20 0 -19
v -17 0 -19
v -18 2 -15
v -17 2 -15
v -18 2 -16
v -17 2 -16
v -18 7 -15
v -17 7 -15
v -18 7 -16
v -17 7 -16
v -20 8 -16
v -17 8 -16
v -19 8 -17
v -18 8 -17
v -19 8 -18
v -18 8 -18
v -20 8 -19
v -17 8 -19
v -19 9 -17
v -18 9 -17
v -19 9 -18
v -18 9 -18

# faces
f 3/3/1 2/3/1 1/3/1
f 4/3/1 2/3/1 3/3/1
f 7/1/1 6/1/1 5/1/1
f 8/1/1 6/1/1 7/1/1
f 11/3/1 10/3/1 9/3/1
f 12/3/1 10/3/1 11/3/1
f 13/1/2 14/1/2 15/1/2
f 15/1/2 14/1/2 16/1/2
f 17/3/2 18/3/2 20/3/2
f 19/3/2 20/3/2 21/3/2
f 20/3/2 18/3/2 22/3/2
f 21/3/2 20/3/2 22/3/2
f 22/3/2 18/3/2 23/3/2
f 23/3/2 18/3/2 24/3/2
f 27/3/3 26/3/3 25/3/3
f 28/3/3 26/3/3 27/3/3
f 31/3/3 30/3/3 29/3/3
f 32/3/3 30/3/3 31/3/3
f 33/3/3 31/3/3 29/3/3
f 34/3/3 31/3/3 33/3/3
f 35/3/3 30/3/3 32/3/3
f 36/3/3 30/3/3 35/3/3
f 39/1/3 38/1/3 37/1/3
f 40/1/3 38/1/3 39/1/3
f 41/1/4 42/1/4 43/1/4
f 43/1/4 42/1/4 44/1/4
f 45/3/4 46/3/4 47/3/4
f 47/3/4 46/3/4 48/3/4
f 51/3/5 50/3/5 49/3/5
f 52/3/5 50/3/5 51/3/5
f 55/3/5 54/3/5 53/3/5
f 56/3/5 54/3/5 55/3/5
f 57/3/6 58/3/6 59/3/6
f 59/3/6 58/3/6 60/3/6
f 61/3/6 62/3/6 63/3/6
f 63/3/6 62/3/6 64/3/6
f 61/3/6 63/3/6 65/3/6
f 64/3/6 62/3/6 66/3/6
f 61/3/6 65/3/6 67/3/6
f 65/3/6 66/3/6 67/3/6
f 66/3/6 62/3/6 68/3/6
f 67/3/6 66/3/6 68/3/6
f 69/1/6 70/1/6 71/1/6
f 71/1/6 70/1/6 72/1/6
